HIERARCHY
ROOT TORSO#
{
	OFFSET 5.56 -369.07 2138.24
	CHANNELS 6 Xposition Yposition Zposition Zrotation Xrotation Yrotation
	JOINT TLS
	{
		OFFSET 0.00 0.00 0.00
		CHANNELS 3 Zrotation Xrotation Yrotation
		JOINT LEFT_SHOULDER#
		{
			OFFSET -161.42 184.08 84.64
			CHANNELS 3 Zrotation Xrotation Yrotation
			JOINT LEFT_ELBOW
			{
				OFFSET -69.59 -223.23 -45.19
				CHANNELS 3 Zrotation Xrotation Yrotation
				JOINT LEFT_HAND
				{
					OFFSET 24.05 -298.44 -191.08
					CHANNELS 3 Zrotation Xrotation Yrotation
					End Site
					{
						OFFSET 0.00 0.00 0.00
					}
				}
			}
		}
	}
	JOINT TRS
	{
		OFFSET 0.00 0.00 0.00
		CHANNELS 3 Zrotation Xrotation Yrotation
		JOINT RIGHT_SHOULDER#
		{
			OFFSET 163.33 201.07 -0.47
			CHANNELS 3 Zrotation Xrotation Yrotation
			JOINT RIGHT_ELBOW
			{
				OFFSET 60.30 -237.59 0.14
				CHANNELS 3 Zrotation Xrotation Yrotation
				JOINT RIGHT_HAND
				{
					OFFSET -13.30 -279.69 -172.79
					CHANNELS 3 Zrotation Xrotation Yrotation
					End Site
					{
						OFFSET 0.00 0.00 0.00
					}
				}
			}
		}
	}
	JOINT TLH
	{
		OFFSET 0.00 0.00 0.00
		CHANNELS 3 Zrotation Xrotation Yrotation
		JOINT LEFT_HIP#
		{
			OFFSET -114.82 -198.54 -12.25
			CHANNELS 3 Zrotation Xrotation Yrotation
			JOINT LEFT_KNEE
			{
				OFFSET 6.44 -357.03 5.22
				CHANNELS 3 Zrotation Xrotation Yrotation
				JOINT LEFT_FOOT
				{
					OFFSET 31.40 -335.83 64.40
					CHANNELS 3 Zrotation Xrotation Yrotation
					End Site
					{
						OFFSET 0.00 0.00 0.00
					}
				}
			}
		}
	}
	JOINT TRH
	{
		OFFSET 0.00 0.00 0.00
		CHANNELS 3 Zrotation Xrotation Yrotation
		JOINT RIGHT_HIP#
		{
			OFFSET 112.92 -186.61 -71.93
			CHANNELS 3 Zrotation Xrotation Yrotation
			JOINT RIGHT_KNEE
			{
				OFFSET 0.92 -357.13 0.99
				CHANNELS 3 Zrotation Xrotation Yrotation
				JOINT RIGHT_FOOT
				{
					OFFSET 1.47 -338.68 56.68
					CHANNELS 3 Zrotation Xrotation Yrotation
					End Site
					{
						OFFSET 0.00 0.00 0.00
					}
				}
			}
		}
	}
	JOINT TN
	{
		OFFSET 0.00 0.00 0.00
		CHANNELS 3 Zrotation Xrotation Yrotation
		JOINT NECK#
		{
			OFFSET 0.95 192.57 42.09
			CHANNELS 3 Zrotation Xrotation Yrotation
			JOINT HEAD
			{
				OFFSET -45.39 264.52 114.97
				CHANNELS 3 Zrotation Xrotation Yrotation
				End Site
				{
					OFFSET 0.00 0.00 0.00
				}
			}
		}
	}
}
MOTION
Frames: 13
Frame Time: 0.033333
-25.61 55.18 -34.97 -0.00 0.00 -0.00 -10.10 8.18 13.10 -18.99 21.80 -2.83 7.85 39.80 -31.98 -0.00 0.00 -0.00 -0.03 -9.24 7.50 -86.54 40.03 47.34 -7.07 17.82 43.64 -0.00 0.00 -0.00 -9.18 -13.66 7.11 10.75 14.24 -0.60 2.55 0.60 0.41 -0.00 0.00 -0.00 -1.67 13.22 8.55 29.67 -8.45 -4.70 -36.83 -11.44 -14.25 -0.00 0.00 -0.00 -7.55 0.85 1.70 2.94 12.38 -1.26 -0.00 0.00 -0.00 
-27.54 55.46 -36.23 -0.00 0.00 -0.00 -10.47 7.89 13.06 -17.66 22.02 -3.73 14.97 38.67 -40.93 -0.00 0.00 -0.00 -0.68 -8.66 6.95 -85.40 39.66 45.52 -6.78 17.69 45.57 -0.00 0.00 -0.00 -10.16 -13.22 6.82 12.21 13.06 -0.42 3.08 -0.21 0.44 -0.00 0.00 -0.00 -1.65 13.14 8.49 4.32 -7.02 -0.56 -7.58 -18.12 -3.16 -0.00 0.00 -0.00 -8.05 1.18 1.83 3.31 12.13 -1.58 -0.00 0.00 -0.00 
-28.41 55.07 -35.48 -0.00 0.00 -0.00 -10.64 8.11 13.38 -16.74 22.15 -4.26 12.41 39.45 -36.79 -0.00 0.00 -0.00 -1.08 -8.57 6.83 -84.25 41.99 47.69 -6.65 18.81 48.41 -0.00 0.00 -0.00 -10.65 -13.16 6.75 12.91 12.86 -0.39 3.63 -1.35 0.42 -0.00 0.00 -0.00 -1.75 13.47 8.74 4.80 -9.16 -0.51 -9.43 -15.33 -3.53 -0.00 0.00 -0.00 -8.43 1.51 1.94 3.60 11.44 -1.83 -0.00 0.00 -0.00 
-23.95 59.11 -32.11 -0.00 0.00 -0.00 -12.87 7.89 14.68 -12.74 21.63 -7.03 4.86 42.99 -24.51 -0.00 0.00 -0.00 -1.64 -8.88 7.01 -84.14 41.92 46.06 -6.43 18.22 47.79 -0.00 0.00 -0.00 -11.82 -14.06 7.06 13.35 14.54 -0.92 6.60 0.53 0.91 -0.00 0.00 -0.00 -3.37 13.95 9.88 6.23 -10.25 -0.41 -10.23 -13.48 -3.45 -0.00 0.00 -0.00 -10.04 1.51 2.32 7.21 11.43 -4.14 -0.00 0.00 -0.00 
-19.95 61.90 -22.32 -0.00 0.00 -0.00 -12.49 10.48 16.92 -17.07 21.00 -4.21 5.36 36.51 -30.65 -0.00 0.00 -0.00 -2.63 -10.19 7.90 -84.55 43.25 44.82 -8.29 19.19 50.13 -0.00 0.00 -0.00 -12.59 -15.49 7.64 13.48 17.46 -1.74 10.21 -1.03 1.08 -0.00 0.00 -0.00 -3.38 16.88 11.60 6.23 -13.20 -0.44 -11.24 -13.48 -3.85 -0.00 0.00 -0.00 -11.06 2.74 2.66 9.30 7.56 -5.37 -0.00 0.00 -0.00 
-16.68 66.00 -20.38 -0.00 0.00 -0.00 -12.05 10.99 17.10 -16.80 20.51 -3.84 3.72 33.07 -26.90 -0.00 0.00 -0.00 -2.15 -11.18 8.75 -86.47 41.45 42.73 -9.76 18.75 50.48 -0.00 0.00 -0.00 -12.32 -16.92 8.32 11.57 19.55 -2.30 12.65 -1.56 1.35 -0.00 0.00 -0.00 -2.64 17.66 11.62 5.52 -14.74 -0.41 -11.91 -11.99 -3.90 -0.00 0.00 -0.00 -10.67 2.30 2.53 9.26 8.44 -5.28 -0.00 0.00 -0.00 
-15.36 62.52 -20.77 -0.00 0.00 -0.00 -12.41 11.31 17.65 -17.54 20.97 -3.80 2.94 31.93 -26.66 -0.00 0.00 -0.00 -2.31 -10.61 8.27 -85.96 41.78 43.47 -9.58 19.16 48.34 -0.00 0.00 -0.00 -12.06 -15.85 7.86 11.47 18.25 -2.04 10.13 -1.67 1.11 -0.00 0.00 -0.00 -3.61 17.71 12.21 6.64 -15.37 -0.30 -12.36 -11.20 -3.95 -0.00 0.00 -0.00 -11.07 3.05 2.69 9.96 6.93 -5.73 -0.00 0.00 -0.00 
-9.04 61.34 -22.09 -0.00 0.00 -0.00 -11.07 12.42 17.73 -17.49 19.95 -2.60 2.33 32.61 -25.92 -0.00 0.00 -0.00 0.51 -10.30 8.45 -88.49 39.47 47.32 -6.73 17.22 42.88 -0.00 0.00 -0.00 -7.70 -14.07 7.46 3.43 16.08 -1.49 12.21 -0.15 1.70 -0.00 0.00 -0.00 -4.29 17.52 12.49 7.23 -16.18 -0.08 -12.36 -10.18 -3.91 -0.00 0.00 -0.00 -8.97 3.57 2.21 7.90 6.80 -4.37 -0.00 0.00 -0.00 
-6.50 55.22 -25.35 -0.00 0.00 -0.00 -11.58 12.34 18.02 -17.79 20.24 -2.82 2.77 33.50 -27.68 -0.00 0.00 -0.00 2.33 -10.01 8.49 -89.78 37.47 48.96 -7.16 16.56 38.73 -0.00 0.00 -0.00 -4.77 -12.66 6.99 0.33 13.77 -0.86 10.60 -0.53 1.76 -0.00 0.00 -0.00 -6.29 16.39 12.97 9.05 -16.15 0.38 -12.04 -9.87 -3.90 -0.00 0.00 -0.00 -8.25 3.53 2.03 7.33 7.33 -3.96 -0.00 0.00 -0.00 
-9.27 52.21 -29.77 -0.00 0.00 -0.00 -11.56 11.59 17.31 -17.42 20.42 -3.18 1.01 35.59 -24.37 -0.00 0.00 -0.00 2.50 -9.49 8.07 -89.58 36.71 48.61 -7.89 16.80 38.07 -0.00 0.00 -0.00 -4.24 -11.75 6.54 0.32 10.54 -0.54 9.47 4.79 1.65 -0.00 0.00 -0.00 -6.64 15.24 12.47 8.95 -15.81 0.64 -11.05 -9.91 -3.75 -0.00 0.00 -0.00 -7.94 3.30 1.94 6.30 8.60 -3.34 -0.00 0.00 -0.00 
-13.42 50.26 -37.11 -0.00 0.00 -0.00 -11.10 10.36 15.83 -17.26 21.04 -3.48 0.74 35.20 -21.84 -0.00 0.00 -0.00 2.97 -8.20 7.03 -88.28 35.40 48.26 -7.45 15.85 36.12 -0.00 0.00 -0.00 -3.35 -10.04 5.66 0.02 5.13 -0.20 7.17 8.62 1.84 -0.00 0.00 -0.00 -6.48 13.53 11.33 8.50 -15.02 0.78 -9.53 -7.99 -3.10 -0.00 0.00 -0.00 -7.09 3.16 1.72 4.22 10.62 -2.01 -0.00 0.00 -0.00 
-11.46 51.93 -36.35 -0.00 0.00 -0.00 -11.15 11.25 16.70 -17.02 20.10 -3.10 0.70 34.83 -22.48 -0.00 0.00 -0.00 3.48 -8.15 7.05 -87.22 34.37 46.61 -6.56 14.00 35.72 -0.00 0.00 -0.00 -2.32 -9.40 5.36 -0.96 3.74 -0.22 5.35 10.37 1.60 -0.00 0.00 -0.00 -7.34 14.01 12.11 8.36 -14.49 0.84 -8.26 -9.53 -2.78 -0.00 0.00 -0.00 -7.06 3.85 1.75 4.64 9.73 -2.31 -0.00 0.00 -0.00 
-13.68 50.90 -37.97 -0.00 0.00 -0.00 -10.31 11.24 16.10 -16.17 19.42 -2.86 -1.45 38.13 -18.98 -0.00 0.00 -0.00 3.52 -7.78 6.73 -87.39 34.26 47.25 -6.69 13.97 32.52 -0.00 0.00 -0.00 -2.15 -8.94 5.11 -0.61 2.90 -0.14 4.07 10.28 1.48 -0.00 0.00 -0.00 -6.57 13.88 11.60 6.98 -14.86 0.90 -7.23 -8.10 -2.33 -0.00 0.00 -0.00 -6.52 3.98 1.62 3.09 9.78 -1.32 -0.00 0.00 -0.00 
